<svg version="1.1" xmlns="http://www.w3.org/2000/svg" viewBox="0 0 655.6478072289228 224.8712152077918" width="655.6478072289228" height="224.8712152077918">
  <!-- svg-source:excalidraw -->
  
  <defs>
    <style class="style-fonts">
      @font-face {
        font-family: "Virgil";
        src: url("https://excalidraw.com/Virgil.woff2");
      }
      @font-face {
        font-family: "Cascadia";
        src: url("https://excalidraw.com/Cascadia.woff2");
      }
    </style>
    
  </defs>
  <rect x="0" y="0" width="655.6478072289228" height="224.8712152077918" fill="#f8f9fa"></rect><g stroke-linecap="round"><g transform="translate(167.50535478358188 31.242760622190247) rotate(0 -78.10232519566557 91.31508645781548)"><path d="M-0.59 0.03 C-18.38 8.38, -80.83 20.46, -106.8 50.94 C-132.77 81.43, -148.26 160.81, -156.41 182.93 M1.3 -1 C-16.62 7.44, -81.13 21.5, -107.59 52.27 C-134.06 83.05, -149.54 161.58, -157.51 183.63" stroke="#1e1e1e" stroke-width="1" fill="none"></path></g><g transform="translate(167.50535478358188 31.242760622190247) rotate(0 -78.10232519566557 91.31508645781548)"><path d="M-159.52 154.2 C-159.4 161.49, -160.09 171.54, -158.24 183.08 M-159.25 152.72 C-157.86 165.08, -157.58 175.65, -156.88 183.84" stroke="#1e1e1e" stroke-width="1" fill="none"></path></g><g transform="translate(167.50535478358188 31.242760622190247) rotate(0 -78.10232519566557 91.31508645781548)"><path d="M-139.8 159.87 C-145.53 165.39, -152.04 173.77, -158.24 183.08 M-139.53 158.4 C-145.34 168.5, -152.2 177.01, -156.88 183.84" stroke="#1e1e1e" stroke-width="1" fill="none"></path></g></g><mask></mask><g transform="translate(186.97788535392283 10) rotate(0 229.3349609375 17.5)"><text x="0" y="0" font-family="Virgil, Segoe UI Emoji" font-size="28px" fill="#1e1e1e" text-anchor="start" style="white-space: pre;" direction="ltr" dominant-baseline="text-before-edge">Type a question to get started.</text></g></svg>